<svg viewBox="0 0 1000 700" xmlns="http://www.w3.org/2000/svg">
  <!-- Title -->
  <text x="500" y="30" text-anchor="middle" font-family="Arial, sans-serif" font-size="20" font-weight="bold" fill="#333">Online Shopping Portal Use Case Diagram</text>
  
  <!-- System boundary -->
  <rect x="200" y="60" width="600" height="580" fill="none" stroke="#2563eb" stroke-width="2" stroke-dasharray="5,5"/>
  <text x="210" y="80" font-family="Arial, sans-serif" font-size="14" font-weight="bold" fill="#2563eb">Online Shopping Portal</text>
  
  <!-- Customer Actor -->
  <g id="customer">
    <!-- Head -->
    <circle cx="80" cy="150" r="12" fill="none" stroke="#333" stroke-width="2"/>
    <!-- Body -->
    <line x1="80" y1="162" x2="80" y2="200" stroke="#333" stroke-width="2"/>
    <!-- Arms -->
    <line x1="60" y1="180" x2="100" y2="180" stroke="#333" stroke-width="2"/>
    <!-- Legs -->
    <line x1="80" y1="200" x2="65" y2="230" stroke="#333" stroke-width="2"/>
    <line x1="80" y1="200" x2="95" y2="230" stroke="#333" stroke-width="2"/>
    <!-- Label -->
    <text x="80" y="250" text-anchor="middle" font-family="Arial, sans-serif" font-size="12" font-weight="bold" fill="#333">User</text>
  </g>
  
  <!-- Administrator Actor -->
  <g id="administrator">
    <!-- Head -->
    <circle cx="920" cy="400" r="12" fill="none" stroke="#333" stroke-width="2"/>
    <!-- Body -->
    <line x1="920" y1="412" x2="920" y2="450" stroke="#333" stroke-width="2"/>
    <!-- Arms -->
    <line x1="900" y1="430" x2="940" y2="430" stroke="#333" stroke-width="2"/>
    <!-- Legs -->
    <line x1="920" y1="450" x2="905" y2="480" stroke="#333" stroke-width="2"/>
    <line x1="920" y1="450" x2="935" y2="480" stroke="#333" stroke-width="2"/>
    <!-- Label -->
    <text x="920" y="500" text-anchor="middle" font-family="Arial, sans-serif" font-size="12" font-weight="bold" fill="#333">Administrator</text>
  </g>
  
  <!-- Customer Use Cases -->
  <!-- Register -->
  <ellipse cx="320" cy="120" rx="60" ry="25" fill="#e0f2fe" stroke="#0277bd" stroke-width="2"/>
  <text x="320" y="125" text-anchor="middle" font-family="Arial, sans-serif" font-size="11" fill="#333">Register</text>
  
  <!-- Login -->
  <ellipse cx="320" cy="170" rx="60" ry="25" fill="#e0f2fe" stroke="#0277bd" stroke-width="2"/>
  <text x="320" y="175" text-anchor="middle" font-family="Arial, sans-serif" font-size="11" fill="#333">Login</text>
  
  <!-- Browse Products -->
  <ellipse cx="320" cy="220" rx="70" ry="25" fill="#e0f2fe" stroke="#0277bd" stroke-width="2"/>
  <text x="320" y="225" text-anchor="middle" font-family="Arial, sans-serif" font-size="11" fill="#333">Browse Products</text>
  
  <!-- Add to Cart -->
  <ellipse cx="320" cy="270" rx="65" ry="25" fill="#e0f2fe" stroke="#0277bd" stroke-width="2"/>
  <text x="320" y="275" text-anchor="middle" font-family="Arial, sans-serif" font-size="11" fill="#333">Add to Cart</text>
  
  <!-- Place Order -->
  <ellipse cx="320" cy="320" rx="65" ry="25" fill="#e0f2fe" stroke="#0277bd" stroke-width="2"/>
  <text x="320" y="325" text-anchor="middle" font-family="Arial, sans-serif" font-size="11" fill="#333">Place Order</text>
  
  <!-- Track Order -->
  <ellipse cx="320" cy="370" rx="65" ry="25" fill="#e0f2fe" stroke="#0277bd" stroke-width="2"/>
  <text x="320" y="375" text-anchor="middle" font-family="Arial, sans-serif" font-size="11" fill="#333">Track Order</text>
  
  <!-- Manage Profile -->
  <ellipse cx="320" cy="420" rx="70" ry="25" fill="#e0f2fe" stroke="#0277bd" stroke-width="2"/>
  <text x="320" y="425" text-anchor="middle" font-family="Arial, sans-serif" font-size="11" fill="#333">Manage Profile</text>
  
  <!-- Administrator Use Cases -->
  <!-- Manage Products -->
  <ellipse cx="680" cy="320" rx="75" ry="25" fill="#fff3e0" stroke="#f57c00" stroke-width="2"/>
  <text x="680" y="325" text-anchor="middle" font-family="Arial, sans-serif" font-size="11" fill="#333">Manage Products</text>
  
  <!-- Manage Orders -->
  <ellipse cx="680" cy="370" rx="70" ry="25" fill="#fff3e0" stroke="#f57c00" stroke-width="2"/>
  <text x="680" y="375" text-anchor="middle" font-family="Arial, sans-serif" font-size="11" fill="#333">Manage Orders</text>
  
  <!-- Manage Users -->
  <ellipse cx="680" cy="420" rx="70" ry="25" fill="#fff3e0" stroke="#f57c00" stroke-width="2"/>
  <text x="680" y="425" text-anchor="middle" font-family="Arial, sans-serif" font-size="11" fill="#333">Manage Users</text>
  
  <!-- Login (shared by both actors) -->
  <ellipse cx="500" cy="170" rx="60" ry="25" fill="#f3e5f5" stroke="#7b1fa2" stroke-width="2"/>
  <text x="500" y="175" text-anchor="middle" font-family="Arial, sans-serif" font-size="11" fill="#333">Login</text>
  
  <!-- Customer Associations -->
  <line x1="100" y1="190" x2="260" y2="120" stroke="#333" stroke-width="1"/>
  <line x1="100" y1="190" x2="260" y2="170" stroke="#333" stroke-width="1"/>
  <line x1="100" y1="190" x2="250" y2="220" stroke="#333" stroke-width="1"/>
  <line x1="100" y1="190" x2="255" y2="270" stroke="#333" stroke-width="1"/>
  <line x1="100" y1="190" x2="255" y2="320" stroke="#333" stroke-width="1"/>
  <line x1="100" y1="190" x2="255" y2="370" stroke="#333" stroke-width="1"/>
  <line x1="100" y1="190" x2="250" y2="420" stroke="#333" stroke-width="1"/>
  
  <!-- Administrator Associations -->
  <line x1="900" y1="430" x2="755" y2="320" stroke="#333" stroke-width="1"/>
  <line x1="900" y1="430" x2="750" y2="370" stroke="#333" stroke-width="1"/>
  <line x1="900" y1="430" x2="750" y2="420" stroke="#333" stroke-width="1"/>
  
  <!-- Shared Login Associations -->
  <line x1="100" y1="190" x2="440" y2="170" stroke="#333" stroke-width="1"/>
  <line x1="900" y1="430" x2="560" y2="170" stroke="#333" stroke-width="1"/>
  
  <!-- Legend -->
  <g id="legend">
    <rect x="400" y="550" width="280" height="80" fill="none" stroke="#666" stroke-width="1"/>
    <text x="410" y="570" font-family="Arial, sans-serif" font-size="12" font-weight="bold" fill="#333">Legend:</text>
    
    <ellipse cx="430" cy="590" rx="15" ry="8" fill="#e0f2fe" stroke="#0277bd" stroke-width="1"/>
    <text x="455" y="595" font-family="Arial, sans-serif" font-size="10" fill="#333">User Use Cases</text>
    
    <ellipse cx="430" cy="610" rx="15" ry="8" fill="#fff3e0" stroke="#f57c00" stroke-width="1"/>
    <text x="455" y="615" font-family="Arial, sans-serif" font-size="10" fill="#333">Administrator Use Cases</text>
    
    <ellipse cx="550" cy="590" rx="15" ry="8" fill="#f3e5f5" stroke="#7b1fa2" stroke-width="1"/>
    <text x="575" y="595" font-family="Arial, sans-serif" font-size="10" fill="#333">Shared Use Cases</text>
    
    <line x1="550" y1="610" x2="570" y2="610" stroke="#333" stroke-width="1"/>
    <text x="575" y="615" font-family="Arial, sans-serif" font-size="10" fill="#333">Association</text>
  </g>
</svg>